#N canvas 786 146 942 551 10;
#X obj 707 48 catch~ master1;
#X obj 737 74 catch~ master2;
#X obj 708 140 output~;
#X floatatom 263 52 5 0 1 1 sono_metro_1 sono_metro_1 -, f 5;
#X floatatom 265 98 5 0 1 1 sono_metro_2 sono_metro_2 -, f 5;
#X floatatom 265 143 5 0 1 1 sono_metro_3 sono_metro_3 -, f 5;
#X floatatom 267 189 5 0 1 1 sono_metro_4 sono_metro_4 -, f 5;
#X floatatom 265 239 5 0 1 1 sono_metro_5 sono_metro_5 -, f 5;
#X floatatom 264 281 5 0 1 1 sono_metro_6 sono_metro_6 -, f 5;
#X floatatom 265 326 5 0 1 1 sono_metro_7 sono_metro_7 -, f 5;
#X floatatom 266 369 5 0 1 1 sono_metro_8 sono_metro_8 -, f 5;
#X floatatom 266 418 5 0 1 1 sono_metro_9 sono_metro_9 -, f 5;
#X floatatom 266 459 5 0 1 1 sono_metro_10 sono_metro_10 -, f 5;
#X floatatom 545 51 5 0 1 1 sono_volume_1 sono_volume_1 -, f 5;
#X floatatom 408 95 5 0 1 1 sono_pan_2 sono_pan_2 -, f 5;
#X floatatom 418 143 5 0 1 1 sono_pan_3 sono_pan_3 -, f 5;
#X floatatom 408 189 5 0 1 1 sono_pan_4 sono_pan_4 -, f 5;
#X floatatom 408 240 5 0 1 1 sono_pan_5 sono_pan_5 -, f 5;
#X floatatom 415 283 5 0 1 1 sono_pan_6 sono_pan_6 -, f 5;
#X floatatom 414 328 5 0 1 1 sono_pan_7 sono_pan_7 -, f 5;
#X floatatom 403 370 5 0 1 1 sono_pan_8 sono_pan_8 -, f 5;
#X floatatom 405 419 5 0 1 1 sono_pan_9 sono_pan_9 -, f 5;
#X floatatom 418 461 5 0 1 1 sono_pan_10 sono_pan_10 -, f 5;
#X obj 767 98 loadbang;
#X msg 767 117 80;
#X floatatom 406 52 5 0 1 1 sono_pan_1 sono_pan_1 -, f 5;
#X floatatom 541 96 5 0 1 1 sono_volume_2 sono_volume_2 -, f 5;
#X floatatom 546 139 5 0 1 1 sono_volume_3 sono_volume_3 -, f 5;
#X floatatom 542 185 5 0 1 1 sono_volume_4 sono_volume_4 -, f 5;
#X floatatom 545 237 5 0 1 1 sono_volume_5 sono_volume_5 -, f 5;
#X floatatom 546 280 5 0 1 1 sono_volume_6 sono_volume_6 -, f 5;
#X floatatom 545 326 5 0 1 1 sono_volume_7 sono_volume_7 -, f 5;
#X floatatom 531 368 5 0 1 1 sono_volume_8 sono_volume_8 -, f 5;
#X floatatom 532 416 5 0 1 1 sono_volume_9 sono_volume_9 -, f 5;
#X floatatom 545 457 5 0 1 1 sono_volume_10 sono_volume_10 -, f 5
;
#X obj 12 21 aquisition/aquisition_comport;
#N canvas 426 216 684 507 data_mapping_1 0;
#X obj 39 36 nbx 5 14 -1e+37 1e+37 0 0 empty temperature_air temperature_air
0 -8 0 10 -262144 -1 -1 2730 256;
#X obj 143 32 nbx 5 14 -1e+37 1e+37 0 0 empty humidity_air humidity_air
0 -8 0 10 -262144 -1 -1 3700 256;
#X obj 245 30 nbx 5 14 -1e+37 1e+37 0 0 empty temperature_water temperature_water
0 -8 0 10 -262144 -1 -1 2300 256;
#X obj 361 29 nbx 5 14 -1e+37 1e+37 0 0 empty luminosity luminosity
0 -8 0 10 -262144 -1 -1 1300 256;
#X obj 435 28 nbx 5 14 -1e+37 1e+37 0 0 empty ph ph 0 -8 0 10 -262144
-1 -1 803 256;
#X obj 508 26 nbx 5 14 -1e+37 1e+37 0 0 empty conductivity conductivity
0 -8 0 10 -262144 -1 -1 2753 256;
#X obj 34 421 send sono_metro_1;
#X obj 137 292 send sono_pan_1;
#X obj 138 262 abs.scale 0 1 4000 3000;
#X obj 241 217 send sono_volume_1;
#X obj 359 72 abs.scale 0 1 6000 1000;
#X obj 241 184 abs.scale 0 7 2000 2300;
#X obj 34 340 abs.scale 0.2 1 3000 1000;
#X connect 0 0 12 0;
#X connect 1 0 8 0;
#X connect 2 0 11 0;
#X connect 3 0 10 0;
#X connect 8 0 7 0;
#X connect 11 0 9 0;
#X connect 12 0 6 0;
#X restore 48 61 pd data_mapping_1;
#N canvas 425 222 684 507 data_mapping_2 0;
#X obj 39 36 nbx 5 14 -1e+37 1e+37 0 0 empty temperature_air temperature_air
0 -8 0 10 -262144 -1 -1 2730 256;
#X obj 143 32 nbx 5 14 -1e+37 1e+37 0 0 empty humidity_air humidity_air
0 -8 0 10 -262144 -1 -1 3700 256;
#X obj 245 30 nbx 5 14 -1e+37 1e+37 0 0 empty temperature_water temperature_water
0 -8 0 10 -262144 -1 -1 2300 256;
#X obj 361 29 nbx 5 14 -1e+37 1e+37 0 0 empty luminosity luminosity
0 -8 0 10 -262144 -1 -1 1300 256;
#X obj 435 28 nbx 5 14 -1e+37 1e+37 0 0 empty ph ph 0 -8 0 10 -262144
-1 -1 803 256;
#X obj 508 26 nbx 5 14 -1e+37 1e+37 0 0 empty conductivity conductivity
0 -8 0 10 -262144 -1 -1 2753 256;
#X obj 362 91 abs.scale 0 1 6000 1000;
#X obj 34 421 send sono_metro_2;
#X obj 137 292 send sono_pan_2;
#X obj 241 217 send sono_volume_2;
#X obj 241 184 abs.scale 0 1 2000 2300;
#X obj 138 262 abs.scale 0 1 3500 3000;
#X obj 34 340 abs.scale 0.1 1 1000 3000;
#X connect 0 0 12 0;
#X connect 1 0 11 0;
#X connect 2 0 10 0;
#X connect 3 0 6 0;
#X connect 10 0 9 0;
#X connect 11 0 8 0;
#X connect 12 0 7 0;
#X restore 47 94 pd data_mapping_2;
#N canvas 424 228 684 507 data_mapping_3 0;
#X obj 39 36 nbx 5 14 -1e+37 1e+37 0 0 empty temperature_air temperature_air
0 -8 0 10 -262144 -1 -1 2730 256;
#X obj 143 32 nbx 5 14 -1e+37 1e+37 0 0 empty humidity_air humidity_air
0 -8 0 10 -262144 -1 -1 3700 256;
#X obj 245 30 nbx 5 14 -1e+37 1e+37 0 0 empty temperature_water temperature_water
0 -8 0 10 -262144 -1 -1 2300 256;
#X obj 361 29 nbx 5 14 -1e+37 1e+37 0 0 empty luminosity luminosity
0 -8 0 10 -262144 -1 -1 1300 256;
#X obj 435 28 nbx 5 14 -1e+37 1e+37 0 0 empty ph ph 0 -8 0 10 -262144
-1 -1 803 256;
#X obj 508 26 nbx 5 14 -1e+37 1e+37 0 0 empty conductivity conductivity
0 -8 0 10 -262144 -1 -1 2753 256;
#X obj 356 140 abs.scale 0 1 6000 1000;
#X obj 353 205 send sono_metro_3;
#X obj 449 100 send sono_volume_3;
#X obj 245 410 send sono_pan_3;
#X obj 442 67 abs.scale 0 1 800 400;
#X connect 3 0 6 0;
#X connect 4 0 10 0;
#X connect 6 0 7 0;
#X connect 10 0 8 0;
#X restore 43 137 pd data_mapping_3;
#N canvas 422 240 684 507 data_mapping_4 0;
#X obj 39 36 nbx 5 14 -1e+37 1e+37 0 0 empty temperature_air temperature_air
0 -8 0 10 -262144 -1 -1 2730 256;
#X obj 143 32 nbx 5 14 -1e+37 1e+37 0 0 empty humidity_air humidity_air
0 -8 0 10 -262144 -1 -1 3700 256;
#X obj 245 30 nbx 5 14 -1e+37 1e+37 0 0 empty temperature_water temperature_water
0 -8 0 10 -262144 -1 -1 2300 256;
#X obj 361 29 nbx 5 14 -1e+37 1e+37 0 0 empty luminosity luminosity
0 -8 0 10 -262144 -1 -1 1300 256;
#X obj 435 28 nbx 5 14 -1e+37 1e+37 0 0 empty ph ph 0 -8 0 10 -262144
-1 -1 803 256;
#X obj 508 26 nbx 5 14 -1e+37 1e+37 0 0 empty conductivity conductivity
0 -8 0 10 -262144 -1 -1 2753 256;
#X obj 245 410 send sono_pan_3;
#X obj 227 137 abs.scale 0 1 2200 2400;
#X obj 215 250 send sono_volume_4;
#X obj 52 247 send sono_metro_4;
#X obj 43 140 abs.scale 0 1 2200 2800;
#X connect 0 0 10 0;
#X connect 2 0 7 0;
#X connect 7 0 8 0;
#X connect 10 0 9 0;
#X restore 47 188 pd data_mapping_4;
#X obj 263 72 sonoSampler samples/b-m/ 20 100 10000 0.5 1;
#X obj 265 162 sonoSampler samples/g-tank/ 8 100 10000 0.5 3;
#X obj 267 207 sonoSampler samples/k-c/ 8 100 10000 0.5 1;
#X obj 264 257 sonoSampler samples/k-co/ 7 100 10000 0.5 1;
#X obj 264 302 sonoSampler samples/mat-01/ 7 100 10000 0.5 1;
#X obj 264 346 sonoSampler samples/mat-02/ 8 100 10000 0.5 1;
#X obj 265 388 sonoSampler samples/o/ 11 100 10000 0.5 1;
#X obj 266 436 sonoSampler samples/p-c/ 6 100 10000 0.5 1;
#X obj 265 478 sonoSampler samples/p-tank/ 8 100 10000 0.5 1;
#X obj 266 116 sonoSampler samples/g-c/ 6 100 10000 0.5 1;
#N canvas 268 182 684 507 data_mapping_5 0;
#X obj 39 30 nbx 5 14 -1e+37 1e+37 0 0 empty temperature_air temperature_air
0 -8 0 10 -262144 -1 -1 2730 256;
#X obj 143 32 nbx 5 14 -1e+37 1e+37 0 0 empty humidity_air humidity_air
0 -8 0 10 -262144 -1 -1 3700 256;
#X obj 245 30 nbx 5 14 -1e+37 1e+37 0 0 empty temperature_water temperature_water
0 -8 0 10 -262144 -1 -1 2300 256;
#X obj 361 29 nbx 5 14 -1e+37 1e+37 0 0 empty luminosity luminosity
0 -8 0 10 -262144 -1 -1 1300 256;
#X obj 435 28 nbx 5 14 -1e+37 1e+37 0 0 empty ph ph 0 -8 0 10 -262144
-1 -1 803 256;
#X obj 508 26 nbx 5 14 -1e+37 1e+37 0 0 empty conductivity conductivity
0 -8 0 10 -262144 -1 -1 2753 256;
#X obj 138 262 abs.scale 0 1 4000 3000;
#X obj 359 72 abs.scale 0 1 6000 1000;
#X obj 34 421 send sono_metro_5;
#X obj 137 292 send sono_pan_5;
#X obj 241 217 send sono_volume_5;
#X obj 241 184 abs.scale 0 1 2000 2300;
#X obj 36 327 abs.scale 0 1 3000 1000;
#X floatatom 104 378 5 0 0 0 - - -, f 5;
#X connect 0 0 12 0;
#X connect 1 0 6 0;
#X connect 2 0 11 0;
#X connect 3 0 7 0;
#X connect 6 0 9 0;
#X connect 11 0 10 0;
#X connect 12 0 8 0;
#X connect 12 0 13 0;
#X restore 46 236 pd data_mapping_5;
#N canvas 98 176 684 507 data_mapping_6 0;
#X obj 39 30 nbx 5 14 -1e+37 1e+37 0 0 empty temperature_air temperature_air
0 -8 0 10 -262144 -1 -1 2730 256;
#X obj 143 32 nbx 5 14 -1e+37 1e+37 0 0 empty humidity_air humidity_air
0 -8 0 10 -262144 -1 -1 3700 256;
#X obj 245 30 nbx 5 14 -1e+37 1e+37 0 0 empty temperature_water temperature_water
0 -8 0 10 -262144 -1 -1 2300 256;
#X obj 361 29 nbx 5 14 -1e+37 1e+37 0 0 empty luminosity luminosity
0 -8 0 10 -262144 -1 -1 1300 256;
#X obj 435 28 nbx 5 14 -1e+37 1e+37 0 0 empty ph ph 0 -8 0 10 -262144
-1 -1 803 256;
#X obj 508 26 nbx 5 14 -1e+37 1e+37 0 0 empty conductivity conductivity
0 -8 0 10 -262144 -1 -1 2753 256;
#X obj 35 380 abs.scale 0 1 3000 1000;
#X floatatom 168 430 5 0 0 0 - - -, f 5;
#X obj 359 294 send sono_metro_6;
#X obj 121 222 send sono_pan_6;
#X obj 437 177 send sono_volume_6;
#X obj 437 91 abs.scale 0 1 400 900;
#X floatatom 454 124 5 0 0 0 - - -, f 5;
#X obj 360 231 abs.scale 0 1 5000 500;
#X floatatom 383 262 5 0 0 0 - - -, f 5;
#X obj 125 167 abs.scale 0 1 3000 4000;
#X connect 1 0 15 0;
#X connect 3 0 13 0;
#X connect 4 0 11 0;
#X connect 6 0 7 0;
#X connect 11 0 10 0;
#X connect 11 0 12 0;
#X connect 13 0 8 0;
#X connect 13 0 14 0;
#X connect 15 0 9 0;
#X restore 47 276 pd data_mapping_6;
#N canvas 97 182 684 507 data_mapping_7 1;
#X obj 39 30 nbx 5 14 -1e+37 1e+37 0 0 empty temperature_air temperature_air
0 -8 0 10 -262144 -1 -1 2730 256;
#X obj 143 32 nbx 5 14 -1e+37 1e+37 0 0 empty humidity_air humidity_air
0 -8 0 10 -262144 -1 -1 3700 256;
#X obj 245 30 nbx 5 14 -1e+37 1e+37 0 0 empty temperature_water temperature_water
0 -8 0 10 -262144 -1 -1 2300 256;
#X obj 361 29 nbx 5 14 -1e+37 1e+37 0 0 empty luminosity luminosity
0 -8 0 10 -262144 -1 -1 1300 256;
#X obj 435 28 nbx 5 14 -1e+37 1e+37 0 0 empty ph ph 0 -8 0 10 -262144
-1 -1 803 256;
#X obj 508 26 nbx 5 14 -1e+37 1e+37 0 0 empty conductivity conductivity
0 -8 0 10 -262144 -1 -1 2753 256;
#X obj 167 401 abs.scale 0 1 3000 1000;
#X floatatom 168 430 5 0 0 0 - - -, f 5;
#X obj 522 164 abs.scale 0 1 400 900;
#X floatatom 539 197 5 0 0 0 - - -, f 5;
#X floatatom 356 332 5 0 0 0 - - -, f 5;
#X obj 522 250 send sono_volume_7;
#X obj 362 368 send sono_metro_7;
#X obj 67 294 send sono_pan_7;
#X obj 86 107 +;
#X floatatom 76 165 5 0 0 0 - - -, f 5;
#X obj 71 239 abs.scale 0 1 3000 6000;
#X obj 299 121 abs.scale 0 1 100 6000;
#X obj 305 294 +;
#X connect 0 0 14 0;
#X connect 2 0 14 1;
#X connect 3 0 17 0;
#X connect 6 0 7 0;
#X connect 8 0 9 0;
#X connect 8 0 11 0;
#X connect 10 0 12 0;
#X connect 14 0 15 0;
#X connect 15 0 16 0;
#X connect 16 0 13 0;
#X connect 16 0 18 1;
#X connect 17 0 18 0;
#X connect 18 0 10 0;
#X restore 44 322 pd data_mapping_7;
#X connect 0 0 2 0;
#X connect 1 0 2 1;
#X connect 3 0 40 0;
#X connect 4 0 49 0;
#X connect 5 0 41 0;
#X connect 6 0 42 0;
#X connect 7 0 43 0;
#X connect 8 0 44 0;
#X connect 9 0 45 0;
#X connect 10 0 46 0;
#X connect 11 0 47 0;
#X connect 12 0 48 0;
#X connect 13 0 40 2;
#X connect 14 0 49 1;
#X connect 15 0 41 1;
#X connect 16 0 42 1;
#X connect 17 0 43 1;
#X connect 18 0 44 1;
#X connect 19 0 45 1;
#X connect 20 0 46 1;
#X connect 21 0 47 1;
#X connect 22 0 48 1;
#X connect 23 0 24 0;
#X connect 24 0 2 2;
#X connect 25 0 40 1;
#X connect 26 0 49 2;
#X connect 27 0 41 2;
#X connect 28 0 42 2;
#X connect 29 0 43 2;
#X connect 30 0 44 2;
#X connect 31 0 45 2;
#X connect 32 0 46 2;
#X connect 33 0 47 2;
#X connect 34 0 48 2;
