#N canvas 39 22 675 551 10;
#X obj 327 60 catch~ master1;
#X obj 339 86 catch~ master2;
#X obj 330 152 output~;
#X obj 33 27 sonoSampler samples/b-m/ 20 500 5000 1;
#X floatatom 34 8 5 0 1 0 - - -, f 5;
#X obj 36 71 sonoSampler samples/g-c/ 6 500 5000 1;
#X floatatom 35 53 5 0 1 0 - - -, f 5;
#X floatatom 35 98 5 0 1 0 - - -, f 5;
#X obj 35 117 sonoSampler samples/g-tank/ 8 500 5000 3;
#X floatatom 37 144 5 0 1 0 - - -, f 5;
#X obj 37 162 sonoSampler samples/k-c/ 8 500 5000 1;
#X floatatom 35 194 5 0 1 0 - - -, f 5;
#X floatatom 34 236 5 0 1 0 - - -, f 5;
#X floatatom 35 281 5 0 1 0 - - -, f 5;
#X floatatom 36 324 5 0 1 0 - - -, f 5;
#X floatatom 36 373 5 0 1 0 - - -, f 5;
#X floatatom 36 414 5 0 1 0 - - -, f 5;
#X obj 35 433 sonoSampler samples/p-tank/ 8 500 5000 1;
#X obj 34 301 sonoSampler samples/mat-02/ 8 500 5000 1;
#X obj 36 391 sonoSampler samples/p-c/ 6 500 5000 1;
#X obj 35 343 sonoSampler samples/o/ 11 500 5000 1;
#X obj 34 256 sonoSampler samples/mat-01/ 7 500 5000 1;
#X obj 34 212 sonoSampler samples/k-co/ 7 500 5000 1;
#X connect 0 0 2 0;
#X connect 1 0 2 1;
#X connect 4 0 3 0;
#X connect 6 0 5 0;
#X connect 7 0 8 0;
#X connect 9 0 10 0;
#X connect 11 0 22 0;
#X connect 12 0 21 0;
#X connect 13 0 18 0;
#X connect 14 0 20 0;
#X connect 15 0 19 0;
#X connect 16 0 17 0;
