#N canvas 258 127 800 486 10;
#X obj 39 47 inlet;
#X obj 49 374 outlet;
#X obj 39 116 expr ($f1-$f2)/($f3-$f2);
#X obj 102 10 loadbang;
#X obj 49 298 +;
#X obj 49 260 *;
#X obj 89 242 -;
#X obj 99 148 t b b b;
#X text 23 428 inverser \$3 avec \$1 inverser \$4 avec \$2;
#X obj 126 71 \$1;
#X obj 183 77 \$2;
#X obj 89 203 \$4;
#X obj 121 203 \$3;
#X obj 162 246 \$3;
#X obj 49 338 clip 0 1;
#X connect 0 0 2 0;
#X connect 2 0 5 0;
#X connect 3 0 7 0;
#X connect 3 0 9 0;
#X connect 3 0 10 0;
#X connect 4 0 14 0;
#X connect 5 0 4 0;
#X connect 6 0 5 1;
#X connect 7 0 11 0;
#X connect 7 1 12 0;
#X connect 7 2 13 0;
#X connect 9 0 2 1;
#X connect 10 0 2 2;
#X connect 11 0 6 0;
#X connect 12 0 6 1;
#X connect 13 0 4 1;
#X connect 14 0 1 0;
