#N canvas 1029 333 450 300 10;
#X obj 39 47 inlet;
#X obj 48 338 outlet;
#X obj 39 116 expr ($f1-$f2)/($f3-$f2);
#X obj 102 10 loadbang;
#X obj 126 71 \$3;
#X obj 183 77 \$4;
#X obj 162 246 \$1;
#X obj 89 203 \$2;
#X obj 49 298 +;
#X obj 49 260 *;
#X obj 121 203 \$1;
#X obj 89 242 -;
#X obj 99 148 t b b b;
#X connect 0 0 2 0;
#X connect 2 0 9 0;
#X connect 3 0 4 0;
#X connect 3 0 5 0;
#X connect 3 0 12 0;
#X connect 4 0 2 1;
#X connect 5 0 2 2;
#X connect 6 0 8 1;
#X connect 7 0 11 0;
#X connect 8 0 1 0;
#X connect 9 0 8 0;
#X connect 10 0 11 1;
#X connect 11 0 9 1;
#X connect 12 0 7 0;
#X connect 12 1 10 0;
#X connect 12 2 6 0;
