#N canvas 2 113 615 578 12;
#X obj 107 147 inlet;
#X obj 112 339 outlet~;
#X obj 186 339 outlet~;
#X obj 112 260 readsf~ 2;
#X obj 178 182 t b a;
#X msg 121 210 1;
#X connect 0 0 4 0;
#X connect 3 0 1 0;
#X connect 3 1 2 0;
#X connect 4 0 5 0;
#X connect 4 1 3 0;
#X connect 5 0 3 0;
#X coords 0 0 1 1 65 55 1 300 200;
