#N canvas 709 196 1090 705 10;
#X obj 65 272 t b a;
#X obj 65 228 makefilename %d.wav;
#X obj 46 553 readsf~ 2;
#X obj 134 671 throw~ master1;
#X obj 254 669 throw~ master2;
#X obj 71 321 list prepend open;
#X obj 71 346 list trim;
#X obj 82 378 t b a;
#X msg 63 409 1;
#X obj 281 569 r \$0-vol;
#X obj 246 596 *~ 1;
#X obj 136 600 *~ 1;
#X obj 60 11 loadbang;
#X msg 61 48 1;
#X obj 149 7 inlet;
#X obj 186 66 r \$0-intervalMin;
#X obj 149 95 +;
#X obj 183 38 r \$0-intervalMax;
#X obj 149 64 *;
#X obj 64 95 metro 5000;
#X obj 134 159 r \$0-nombreEchantillon;
#X obj 62 161 random 4;
#X obj 533 46 loadbang;
#X obj 62 196 + 1;
#X obj 65 298 pd-osc/combine \$1;
#X text 640 231 path des echantillon / nombre d echantillon interval
min interval max vol;
#X obj 562 120 s \$0-nombreEchantillon;
#X obj 815 35 symbol \$0-test;
#X obj 751 100 print;
#X obj 548 167 s \$0-intervalMin;
#X obj 506 230 s \$0-intervalMax;
#X obj 449 291 s \$0-vol;
#X obj 562 96 f \$2;
#X obj 548 143 f \$3;
#X obj 506 206 f \$4;
#X obj 220 402 f;
#X obj 220 426 + 1;
#X obj 223 500 clone 5 sfplayer;
#X obj 217 371 t b a;
#X obj 220 450 mod 5;
#X obj 220 474 list append;
#X obj 413 55 inlet;
#X obj 365 210 f \$5;
#X obj 464 201 f \$6;
#X obj 357 291 s \$0-pan;
#X obj 350 44 inlet;
#X obj 420 373 r \$0-pan;
#X obj 420 437 expr 1-$f1;
#X obj 420 400 t f f;
#X floatatom 542 384 5 0 1 0 - - -, f 5;
#X obj 136 638 *~ 0.5;
#X obj 252 633 *~ 0.5;
#X obj 144 32 abs, f 4;
#X obj 430 243 abs;
#X obj 368 166 abs;
#X connect 0 0 24 0;
#X connect 0 1 24 1;
#X connect 1 0 0 0;
#X connect 2 0 11 0;
#X connect 2 1 10 0;
#X connect 5 0 6 0;
#X connect 6 0 7 0;
#X connect 6 0 38 0;
#X connect 7 0 8 0;
#X connect 9 0 10 1;
#X connect 9 0 11 1;
#X connect 10 0 51 0;
#X connect 11 0 50 0;
#X connect 12 0 13 0;
#X connect 13 0 19 0;
#X connect 14 0 52 0;
#X connect 15 0 16 1;
#X connect 16 0 19 1;
#X connect 17 0 18 1;
#X connect 18 0 16 0;
#X connect 19 0 21 0;
#X connect 20 0 21 1;
#X connect 21 0 23 0;
#X connect 22 0 27 0;
#X connect 22 0 32 0;
#X connect 22 0 33 0;
#X connect 22 0 34 0;
#X connect 22 0 43 0;
#X connect 22 0 42 0;
#X connect 23 0 1 0;
#X connect 24 0 5 0;
#X connect 27 0 28 0;
#X connect 32 0 26 0;
#X connect 33 0 29 0;
#X connect 34 0 30 0;
#X connect 35 0 36 0;
#X connect 36 0 39 0;
#X connect 37 0 11 0;
#X connect 37 1 10 0;
#X connect 38 0 35 0;
#X connect 38 1 40 1;
#X connect 39 0 35 1;
#X connect 39 0 40 0;
#X connect 40 0 37 0;
#X connect 41 0 53 0;
#X connect 42 0 44 0;
#X connect 43 0 31 0;
#X connect 45 0 54 0;
#X connect 46 0 48 0;
#X connect 47 0 50 1;
#X connect 48 0 47 0;
#X connect 48 1 51 1;
#X connect 49 0 48 0;
#X connect 50 0 3 0;
#X connect 51 0 4 0;
#X connect 52 0 18 0;
#X connect 53 0 31 0;
#X connect 54 0 42 0;
