#N canvas 373 22 864 537 10;
#X obj 65 272 t b a;
#X obj 65 228 makefilename %d.wav;
#X obj 71 445 readsf~ 2;
#X obj 71 514 throw~ master1;
#X obj 209 516 throw~ master2;
#X obj 71 321 list prepend open;
#X obj 71 346 list trim;
#X obj 82 378 t b a;
#X msg 63 409 1;
#X obj 246 451 r \$0-vol;
#X obj 211 478 *~ 1;
#X obj 101 482 *~ 1;
#X obj 60 11 loadbang;
#X msg 61 48 1;
#X obj 149 7 inlet;
#X obj 186 66 r \$0-intervalMin;
#X obj 152 103 +;
#X obj 183 38 r \$0-intervalMax;
#X obj 149 64 *;
#X obj 64 95 metro 5000;
#X obj 139 167 r \$0-nombreEchantillon;
#X obj 62 161 random 4;
#X obj 400 30 loadbang;
#X obj 62 196 + 1;
#X obj 65 298 pd-osc/combine \$1;
#X text 507 215 path des echantillon / nombre d echantillon interval
min interval max vol;
#X obj 429 104 s \$0-nombreEchantillon;
#X obj 682 19 symbol \$0-test;
#X obj 618 84 print;
#X obj 415 151 s \$0-intervalMin;
#X obj 373 214 s \$0-intervalMax;
#X obj 330 272 s \$0-vol;
#X obj 429 80 f \$2;
#X obj 415 127 f \$3;
#X obj 373 190 f \$4;
#X obj 330 248 f \$5;
#X connect 0 0 24 0;
#X connect 0 1 24 1;
#X connect 1 0 0 0;
#X connect 2 0 11 0;
#X connect 2 1 10 0;
#X connect 5 0 6 0;
#X connect 6 0 7 0;
#X connect 7 0 8 0;
#X connect 7 1 2 0;
#X connect 8 0 2 0;
#X connect 9 0 10 1;
#X connect 9 0 11 1;
#X connect 10 0 4 0;
#X connect 11 0 3 0;
#X connect 12 0 13 0;
#X connect 13 0 19 0;
#X connect 14 0 18 0;
#X connect 15 0 16 1;
#X connect 16 0 19 1;
#X connect 17 0 18 1;
#X connect 18 0 16 0;
#X connect 19 0 21 0;
#X connect 20 0 21 1;
#X connect 21 0 23 0;
#X connect 22 0 27 0;
#X connect 22 0 32 0;
#X connect 22 0 33 0;
#X connect 22 0 34 0;
#X connect 22 0 35 0;
#X connect 23 0 1 0;
#X connect 24 0 5 0;
#X connect 27 0 28 0;
#X connect 32 0 26 0;
#X connect 33 0 29 0;
#X connect 34 0 30 0;
#X connect 35 0 31 0;
