#N canvas 132 59 968 766 10;
#X obj 102 260 t b a;
#X obj 102 227 makefilename %d.wav;
#X obj 101 639 throw~ master1;
#X obj 221 637 throw~ master2;
#X obj 108 320 list prepend open;
#X obj 108 345 list trim;
#X obj 249 499 r \$0-vol;
#X obj 218 535 *~ 1;
#X obj 108 539 *~ 1;
#X obj 97 10 loadbang;
#X msg 98 47 1;
#X obj 186 6 inlet;
#X obj 223 65 r \$0-intervalMin;
#X obj 186 94 +;
#X obj 220 37 r \$0-intervalMax;
#X obj 186 63 *;
#X obj 171 158 r \$0-nombreEchantillon;
#X obj 99 160 random 4;
#X obj 603 163 loadbang;
#X obj 99 195 + 1;
#X obj 102 297 pd-osc/combine \$1;
#X obj 632 237 s \$0-nombreEchantillon;
#X obj 680 189 symbol \$0-test;
#X obj 680 214 print;
#X obj 618 284 s \$0-intervalMin;
#X obj 576 347 s \$0-intervalMax;
#X obj 499 411 s \$0-vol;
#X obj 632 213 f \$2;
#X obj 618 260 f \$3;
#X obj 576 323 f \$4;
#X obj 108 405 f;
#X obj 108 429 + 1;
#X obj 108 375 t b a;
#X obj 108 453 mod 5;
#X obj 108 477 list append;
#X obj 503 162 inlet;
#X obj 421 314 f \$5;
#X obj 508 379 f \$6;
#X obj 421 380 s \$0-pan;
#X obj 420 161 inlet;
#X obj 300 534 r \$0-pan;
#X obj 129 585 expr 1-$f1;
#X obj 297 557 t f f;
#X floatatom 384 531 5 0 1 0 - - -, f 5;
#X obj 105 612 *~ 0.5;
#X obj 234 598 *~ 0.5;
#X obj 181 31 abs, f 4;
#X obj 502 318 abs;
#X obj 421 194 abs;
#X text 418 40 2) nombre d echantillon;
#X text 417 59 3) interval minimum;
#X text 415 79 4) interval maximum;
#X text 418 20 1) path des echantillon /;
#X text 416 114 6) volume;
#X text 416 97 5) Pan;
#X obj 14 12 inlet;
#X obj 14 97 t b;
#X obj 27 62 bng 15 250 50 0 empty empty empty 17 7 0 10 -262144 -1
-1;
#X obj 77 505 clone 16 sfplayer;
#X obj 84 92 metro 5000;
#X connect 0 0 20 0;
#X connect 0 1 20 1;
#X connect 1 0 0 0;
#X connect 4 0 5 0;
#X connect 5 0 32 0;
#X connect 6 0 7 1;
#X connect 6 0 8 1;
#X connect 7 0 45 0;
#X connect 8 0 44 0;
#X connect 9 0 10 0;
#X connect 10 0 59 0;
#X connect 11 0 46 0;
#X connect 12 0 13 1;
#X connect 13 0 59 1;
#X connect 14 0 15 1;
#X connect 15 0 13 0;
#X connect 16 0 17 1;
#X connect 17 0 19 0;
#X connect 18 0 22 0;
#X connect 18 0 27 0;
#X connect 18 0 28 0;
#X connect 18 0 29 0;
#X connect 18 0 37 0;
#X connect 18 0 36 0;
#X connect 19 0 1 0;
#X connect 20 0 4 0;
#X connect 22 0 23 0;
#X connect 27 0 21 0;
#X connect 28 0 24 0;
#X connect 29 0 25 0;
#X connect 30 0 31 0;
#X connect 31 0 33 0;
#X connect 32 0 30 0;
#X connect 32 1 34 1;
#X connect 33 0 30 1;
#X connect 33 0 34 0;
#X connect 34 0 58 0;
#X connect 35 0 47 0;
#X connect 36 0 38 0;
#X connect 37 0 26 0;
#X connect 39 0 48 0;
#X connect 40 0 42 0;
#X connect 41 0 44 1;
#X connect 42 0 41 0;
#X connect 42 1 45 1;
#X connect 43 0 42 0;
#X connect 44 0 2 0;
#X connect 45 0 3 0;
#X connect 46 0 15 0;
#X connect 47 0 26 0;
#X connect 48 0 36 0;
#X connect 55 0 56 0;
#X connect 56 0 17 0;
#X connect 57 0 56 0;
#X connect 58 0 8 0;
#X connect 58 1 7 0;
#X connect 59 0 17 0;
